HIERARCHY
ROOT Hips
{
	OFFSET 0.000000 8.830580 0.000000
	CHANNELS 6 Xposition Yposition Zposition Zrotation Yrotation Xrotation 
	JOINT Spine
	{
		OFFSET 0.000000 0.010000 0.000000
		CHANNELS 3 Zrotation Yrotation Xrotation
		JOINT Spine1
		{
			OFFSET 0.000000 2.459130 0.000000
			CHANNELS 3 Zrotation Yrotation Xrotation
			JOINT Neck
			{
				OFFSET 0.000000 2.484630 0.000000
				CHANNELS 3 Zrotation Yrotation Xrotation
				JOINT Head_virtual
				{
					OFFSET 0.000000 0.000000 0.000000
					CHANNELS 3 Zrotation Yrotation Xrotation
					JOINT Head
					{
						OFFSET 0.000000 0.927525 0.000000
						CHANNELS 3 Zrotation Yrotation Xrotation
						End Site
						{
							OFFSET 0.000000 0.000000 0.000000
						}
					}
				}
				JOINT LeftUpArm_virtual
				{
					OFFSET 0.000000 0.000000 0.000000
					CHANNELS 3 Zrotation Yrotation Xrotation
					JOINT LeftUpArm
					{
						OFFSET 1.248820 0.000000 0.000000
						CHANNELS 3 Zrotation Yrotation Xrotation
						JOINT LeftForeArm
						{
							OFFSET 2.597580 0.000000 0.000000
							CHANNELS 3 Zrotation Yrotation Xrotation
							JOINT LeftHand
							{
								OFFSET 2.455420 0.000000 0.000000
								CHANNELS 3 Zrotation Yrotation Xrotation
								End Site
								{
									OFFSET 0.000000 0.000000 0.000000
								}
							}
						}
					}
				}
				JOINT RightUpArm_virtual
				{
					OFFSET -0.000000 -0.000000 -0.000000
					CHANNELS 3 Zrotation Yrotation Xrotation
					JOINT RightUpArm
					{
						OFFSET -1.248820 -0.000000 -0.000000
						CHANNELS 3 Zrotation Yrotation Xrotation
						JOINT RightForeArm
						{
							OFFSET -2.597580 -0.000000 -0.000000
							CHANNELS 3 Zrotation Yrotation Xrotation
							JOINT RightHand
							{
								OFFSET -2.455420 -0.000000 -0.000000
								CHANNELS 3 Zrotation Yrotation Xrotation
								End Site
								{
									OFFSET 0.000000 0.000000 0.000000
								}
							}
						}
					}
				}
			}
		}
	}
	JOINT LeftUpLeg
	{
		OFFSET 1.271939 0.000000 0.000000
		CHANNELS 3 Zrotation Yrotation Xrotation
		JOINT LeftLowLeg
		{
			OFFSET 0.000000 -4.342910 0.000000
			CHANNELS 3 Zrotation Yrotation Xrotation
			JOINT LeftFoot
			{
				OFFSET 0.000000 -4.487670 0.000000
				CHANNELS 3 Zrotation Yrotation Xrotation
				JOINT LeftToeBase
				{
					OFFSET 0.000000 0.000000 1.515070
					CHANNELS 3 Zrotation Yrotation Xrotation
					End Site
					{
						OFFSET 0.000000 0.000000 0.000000
					}
				}
			}
		}
	}
	JOINT RightUpLeg
	{
		OFFSET -1.271939 0.000000 0.000000
		CHANNELS 3 Zrotation Yrotation Xrotation
		JOINT RightLowLeg
		{
			OFFSET 0.000000 -4.342910 0.000000
			CHANNELS 3 Zrotation Yrotation Xrotation
			JOINT RightFoot
			{
				OFFSET 0.000000 -4.487670 0.000000
				CHANNELS 3 Zrotation Yrotation Xrotation
				JOINT RightToeBase
				{
					OFFSET 0.000000 0.000000 1.515070
					CHANNELS 3 Zrotation Yrotation Xrotation
					End Site
					{
						OFFSET 0.000000 0.000000 0.000000
					}
				}
			}
		}
	}
}
MOTION
Frames: 17
Frame Time: 0.041667
-23.034920 8.924359 45.883483 -175.943454 54.233656 -172.959296 -3.982289 4.245349 -8.369569 8.688882 1.215008 -7.313173 0.000000 0.000000 0.000000 -22.937323 -13.664411 26.347733 13.200638 22.658417 -86.656581 -28.868999 11.986300 -1.586540 -4.744230 4.117110 -13.389700 0.000000 -35.362900 0.000000 -15.253300 5.496750 -7.447780 20.592899 -1.472220 8.652120 1.652840 8.851410 -23.661100 0.000000 38.198601 0.000000 -0.030244 3.564330 -55.067001 -3.037096 0.097339 1.420892 0.000000 0.000000 8.395560 -10.204308 2.574968 -2.173796 0.000000 0.000000 -28.087900 1.074730 -18.980489 -22.737982 0.000000 0.000000 19.541500 16.731525 3.181495 19.309529 0.000000 0.000000 -35.638800 
-23.040607 8.924135 45.874340 -175.946050 53.807982 -173.058385 -4.134020 4.332778 -8.656438 8.720553 1.316104 -7.127540 0.000000 0.000000 0.000000 -22.596268 -14.269830 26.767665 13.477138 22.793316 -86.480561 -28.573200 11.982900 -2.121310 -3.949900 3.834110 -16.110201 0.000000 -31.740200 0.000000 -14.541400 6.260610 -7.365660 20.397499 -1.017220 8.161150 1.173500 9.826430 -27.832199 0.000000 35.213699 0.000000 -0.347547 2.051810 -49.779099 -3.035525 -0.035547 1.474290 0.000000 0.000000 8.416710 -10.197066 2.363224 -2.132315 0.000000 0.000000 -27.962200 1.743705 -21.014097 -22.848790 0.000000 0.000000 19.462000 16.515599 2.644734 19.219554 0.000000 0.000000 -36.036400 
-23.047307 8.924253 45.864188 -175.968334 53.361632 -173.148117 -4.192437 4.377323 -8.933330 8.608081 1.359206 -6.976113 0.000000 0.000000 0.000000 -22.270152 -14.856200 27.192961 13.627648 22.966184 -86.378387 -28.307600 12.080600 -2.725030 -3.236440 3.649160 -19.012800 0.000000 -28.680099 0.000000 -13.169500 7.130000 -6.672600 20.379700 -0.516515 8.034540 0.585119 10.603800 -32.435299 0.000000 32.548801 0.000000 -0.359434 0.819043 -45.243301 -3.021592 0.056801 1.490891 0.000000 0.000000 8.448940 -10.148046 1.889339 -2.017598 0.000000 0.000000 -27.903600 2.364059 -22.926697 -23.007702 0.000000 0.000000 19.435699 16.099685 2.075319 18.987361 0.000000 0.000000 -35.786100 
-23.054529 8.924301 45.853341 -176.027890 52.934269 -173.232039 -4.239308 4.438933 -9.186323 8.455606 1.429296 -6.936269 0.000000 0.000000 0.000000 -22.022753 -15.328321 27.657900 13.822495 23.105809 -86.199291 -28.109699 12.239700 -3.258070 -2.561400 3.484090 -22.087000 0.000000 -26.116800 0.000000 -11.442400 7.937710 -5.962530 20.263000 -0.150552 7.607250 0.260934 11.347200 -36.646999 0.000000 30.204399 0.000000 -0.344208 -0.354465 -41.575199 -3.054515 -0.050336 1.508221 0.000000 0.000000 8.419300 -10.137815 1.598718 -1.903140 0.000000 0.000000 -27.876600 2.904639 -24.632432 -23.190001 0.000000 0.000000 19.366501 15.883602 1.543022 18.793120 0.000000 0.000000 -35.715401 
-23.062488 8.923595 45.842976 -176.145443 52.539928 -173.331725 -4.253226 4.522039 -9.376008 8.163479 1.531694 -7.056964 0.000000 0.000000 0.000000 -21.794008 -15.745525 28.193968 13.984921 23.300186 -86.031128 -27.889700 12.445300 -3.732870 -1.957620 3.371780 -25.465200 0.000000 -24.029900 0.000000 -9.576550 8.609170 -5.182680 20.347601 0.210079 7.519440 -0.221133 11.777500 -40.718700 0.000000 28.270000 0.000000 -0.646013 -1.597370 -38.600201 -3.116844 -0.046903 1.495261 0.000000 0.000000 8.385540 -10.100227 1.228058 -1.764405 0.000000 0.000000 -27.859300 3.321742 -25.959610 -23.400928 0.000000 0.000000 19.331699 15.975246 0.889535 18.472607 0.000000 0.000000 -35.966801 
-23.071016 8.922581 45.831652 -176.315356 52.224492 -173.400134 -4.194676 4.663941 -9.620568 7.674835 1.678744 -7.192333 0.000000 0.000000 0.000000 -21.584539 -16.037051 28.734049 14.248468 23.561939 -85.886080 -27.616600 12.727300 -4.314160 -1.497320 3.154860 -28.852699 0.000000 -22.322399 0.000000 -7.102120 9.213630 -4.773690 20.486300 0.559218 7.218600 -0.572182 11.990100 -44.270000 0.000000 26.603399 0.000000 -1.163520 -2.860310 -35.500801 -3.244147 -0.118735 1.460213 0.000000 0.000000 8.270510 -10.006845 1.036540 -1.610663 0.000000 0.000000 -27.891300 3.676509 -27.054570 -23.703185 0.000000 0.000000 19.330500 16.031340 0.131007 18.107969 0.000000 0.000000 -36.459101 
-23.076690 8.920818 45.820415 -176.495336 51.961068 -173.449964 -4.147475 4.848693 -9.878685 7.146961 1.875471 -7.378745 0.000000 0.000000 0.000000 -21.405458 -16.265472 29.300906 14.487827 23.861562 -85.794275 -27.382099 13.026200 -5.062510 -1.031300 2.837800 -32.721100 0.000000 -20.734301 0.000000 -5.217380 9.574820 -5.420140 20.690300 0.714647 6.982950 -0.950942 12.254100 -47.776299 0.000000 25.062300 0.000000 -1.886820 -4.277000 -32.299000 -3.359536 -0.022903 1.440750 0.000000 0.000000 8.113630 -9.962745 0.687535 -1.448505 0.000000 0.000000 -27.899500 3.978552 -27.887464 -24.012037 0.000000 0.000000 19.337900 15.969800 -0.622816 17.711511 0.000000 0.000000 -36.574200 
-23.083129 8.919045 45.807387 -176.671172 51.677402 -173.495622 -4.004640 5.054863 -10.161638 6.461628 2.065457 -7.519924 0.000000 0.000000 0.000000 -21.196468 -16.559133 29.958682 14.525056 24.292315 -85.899166 -27.126400 13.313800 -6.012910 -0.646307 2.468300 -36.378700 0.000000 -19.368500 0.000000 -3.124560 9.836810 -6.877140 20.991501 0.946141 6.723870 -1.274160 12.168200 -50.736698 0.000000 23.758101 0.000000 -2.929410 -5.904890 -30.166100 -3.499865 -0.118607 1.436923 0.000000 0.000000 7.932760 -9.910976 0.519330 -1.311154 0.000000 0.000000 -27.880100 4.167290 -28.576973 -24.258321 0.000000 0.000000 19.352900 15.701675 -1.161268 17.397127 0.000000 0.000000 -36.706400 
-23.088879 8.916675 45.794488 -176.840012 51.371603 -173.546551 -3.889638 5.298424 -10.458286 5.809878 2.292320 -7.590080 0.000000 0.000000 0.000000 -20.959108 -16.861234 30.508329 14.537786 24.719380 -86.008914 -26.872400 13.463800 -6.737220 -0.330721 2.154100 -39.861900 0.000000 -18.176800 0.000000 -0.941065 10.249300 -9.374070 21.313999 0.940458 6.716430 -1.680660 12.213500 -54.027901 0.000000 22.465900 0.000000 -4.219470 -7.534090 -28.223900 -3.641936 -0.296157 1.430579 0.000000 0.000000 7.785330 -9.860294 0.419348 -1.214932 0.000000 0.000000 -27.877200 4.322273 -29.282624 -24.457825 0.000000 0.000000 19.352699 15.435605 -1.537233 17.101624 0.000000 0.000000 -36.892700 
-23.093942 8.914765 45.779210 -176.958841 51.023263 -173.590699 -3.740187 5.573857 -10.797562 5.172243 2.530915 -7.534903 0.000000 0.000000 0.000000 -20.714360 -17.198395 31.024780 14.478856 25.133371 -86.125254 -26.672400 13.436500 -7.469230 -0.005645 1.964570 -42.891300 0.000000 -17.091299 0.000000 1.428210 10.464900 -11.646100 21.617901 0.844860 6.323620 -1.887010 12.061200 -56.549099 0.000000 21.497601 0.000000 -5.502280 -8.825030 -26.839399 -3.748039 -0.392182 1.458994 0.000000 0.000000 7.655300 -9.799351 0.209275 -1.106207 0.000000 0.000000 -27.874100 4.405491 -30.017411 -24.539676 0.000000 0.000000 19.313299 15.062135 -1.641242 16.960679 0.000000 0.000000 -37.039499 
-23.098745 8.912298 45.768212 -176.981538 50.571601 -173.594355 -3.686886 5.754901 -11.051496 4.835691 2.696761 -7.481393 0.000000 0.000000 0.000000 -20.609955 -17.326606 31.375739 14.441206 25.387883 -86.196638 -26.577101 13.362200 -7.982210 0.276139 1.943990 -45.340199 0.000000 -16.186399 0.000000 3.877720 10.765100 -14.011000 21.771200 0.678730 5.993680 -1.932600 11.903300 -58.946602 0.000000 20.832500 0.000000 -6.703700 -9.555790 -24.894600 -3.767930 -0.370193 1.579863 0.000000 0.000000 7.357270 -9.782848 -0.112866 -0.980202 0.000000 0.000000 -27.988300 4.432190 -30.586205 -24.548481 0.000000 0.000000 19.323799 14.861890 -1.699290 16.795435 0.000000 0.000000 -36.855101 
-23.101156 8.911176 45.747709 -177.062851 50.322762 -173.532853 -3.603611 6.030352 -11.682249 4.521768 2.924336 -7.086866 0.000000 0.000000 0.000000 -20.560632 -17.486143 31.699675 14.293860 25.577681 -86.373835 -26.581900 13.206200 -8.323770 0.554447 2.036330 -47.666599 0.000000 -15.368700 0.000000 5.956400 11.056100 -15.033600 21.971201 0.450047 5.851100 -2.046860 11.675100 -60.998600 0.000000 20.431999 0.000000 -7.550920 -9.836060 -23.622101 -3.886597 -0.683302 1.450963 0.000000 0.000000 7.491590 -9.703584 -0.101316 -1.015701 0.000000 0.000000 -27.797100 4.320553 -30.829564 -24.624051 0.000000 0.000000 19.388500 14.382326 -1.696953 16.794494 0.000000 0.000000 -36.742800 
-23.106734 8.910241 45.737988 -177.154886 49.722468 -173.634003 -3.717479 6.040622 -11.909790 4.572070 2.958304 -6.922711 0.000000 0.000000 0.000000 -20.701206 -17.396038 31.946813 14.262708 25.588532 -86.506331 -26.667101 13.031700 -8.647220 0.679860 2.345690 -49.448299 0.000000 -14.731000 0.000000 7.514030 11.109300 -16.530199 22.052299 0.241010 5.632540 -2.014940 11.411600 -62.236500 0.000000 20.295601 0.000000 -8.240680 -9.987710 -23.402800 -3.908812 -0.834976 1.412770 0.000000 0.000000 7.563410 -9.670503 -0.511585 -0.925837 0.000000 0.000000 -27.848200 4.099144 -31.068397 -24.519086 0.000000 0.000000 19.465799 14.138869 -1.865142 16.710653 0.000000 0.000000 -36.585899 
-23.110887 8.909372 45.728040 -177.230480 49.163541 -173.718226 -3.948876 5.987244 -12.178844 4.934280 2.959233 -6.725390 0.000000 0.000000 0.000000 -20.999360 -17.072433 32.060958 14.320270 25.394747 -86.501124 -26.872200 12.952900 -8.920300 0.734198 2.637040 -50.813400 0.000000 -14.078400 0.000000 8.805200 11.055300 -16.980499 21.950899 0.067635 5.256070 -1.828940 11.123400 -62.526600 0.000000 20.297701 0.000000 -8.634810 -9.978760 -24.044800 -3.939449 -1.103190 1.400450 0.000000 0.000000 7.602990 -9.634987 -0.753327 -0.868775 0.000000 0.000000 -27.825400 3.860884 -31.215552 -24.394130 0.000000 0.000000 19.534100 14.010731 -2.010081 16.651915 0.000000 0.000000 -36.802601 
-23.115960 8.908097 45.718456 -177.284972 48.706813 -173.788476 -4.156178 5.937637 -12.375034 5.310501 2.963285 -6.630015 0.000000 0.000000 0.000000 -21.358036 -16.664744 32.241764 14.263515 25.200050 -86.495372 -27.044201 12.971200 -8.882450 0.718574 2.949540 -51.572498 0.000000 -13.518600 0.000000 9.112240 10.990100 -23.277300 21.861000 0.028800 5.319800 -1.735770 10.671400 -62.636299 0.000000 20.266701 0.000000 -8.675390 -9.819530 -24.687401 -3.976423 -1.282884 1.405472 0.000000 0.000000 7.616780 -9.569714 -0.954493 -0.825714 0.000000 0.000000 -27.853300 3.658140 -31.359178 -24.305129 0.000000 0.000000 19.660601 13.788728 -2.107459 16.514490 0.000000 0.000000 -36.714100 
-23.121405 8.906668 45.709889 -177.335817 48.264219 -173.944606 -4.333922 5.857711 -12.402885 5.672767 2.939241 -6.679177 0.000000 0.000000 0.000000 -21.765514 -16.245974 32.566946 14.166088 24.989060 -86.455469 -27.111401 13.107000 -8.760650 0.489636 3.109750 -51.488800 0.000000 -13.321000 0.000000 10.532600 11.856400 -22.227800 21.755199 0.068200 5.441450 -1.625230 10.114500 -62.185200 0.000000 20.207001 0.000000 -8.455760 -9.494700 -24.987000 -4.001886 -1.329250 1.423383 0.000000 0.000000 7.771300 -9.481956 -1.280921 -0.814703 0.000000 0.000000 -27.888100 3.415483 -31.536482 -24.105251 0.000000 0.000000 19.780001 13.450865 -2.116711 16.390519 0.000000 0.000000 -36.584600 
-23.127567 8.905006 45.701813 -177.338216 47.896040 -174.152593 -4.423792 5.770975 -12.312574 6.007913 2.879959 -6.708562 0.000000 0.000000 0.000000 -22.224395 -15.562799 32.685369 14.139910 24.726885 -86.312667 -27.274700 13.240200 -8.498970 0.504020 3.557200 -50.133801 0.000000 -13.006000 0.000000 10.438100 11.762900 -22.554899 21.646601 0.194844 5.731430 -1.510510 9.576590 -61.709999 0.000000 20.199600 0.000000 -8.138460 -9.255350 -25.344200 -4.038735 -1.562889 1.493936 0.000000 0.000000 7.993670 -9.420812 -1.324779 -0.894339 0.000000 0.000000 -27.884300 3.144427 -31.629126 -23.819730 0.000000 0.000000 19.929100 13.088926 -2.231216 16.286110 0.000000 0.000000 -36.782499 
